{"asset":{"version":"2.0","generator":"VECTARY"},"scene":0,"extensionsUsed":["KHR_texture_transform"],"nodes":[{"translation":[-0.00044792752061121645,0.011218641206756896,0.028432167640085652],"scale":[0.06019347061606887,0.06068145514404434,0.060193470616068875],"rotation":[-0.7008684380027007,-0.09371996911893582,-0.09371996911893583,0.7008684380027008],"name":"rubix","mesh":0}],"materials":[{"pbrMetallicRoughness":{"baseColorFactor":[1,1,1,1],"metallicFactor":0,"roughnessFactor":0.2},"name":"rubix material","emissiveFactor":[0,0,0],"alphaMode":"OPAQUE","doubleSided":false}],"meshes":[{"primitives":[{"mode":4,"attributes":{"POSITION":1,"NORMAL":2,"TEXCOORD_0":3},"material":0,"indices":0}]}],"accessors":[{"bufferView":0,"byteOffset":0,"componentType":5125,"count":377718,"type":"SCALAR"},{"bufferView":1,"byteOffset":0,"componentType":5126,"count":377718,"max":[0.7734050154685974,0.964917004108429,3.515697956085205],"min":[-0.6334940195083618,-0.34620898962020874,1.8677480220794678],"type":"VEC3"},{"bufferView":2,"byteOffset":0,"componentType":5126,"count":377718,"type":"VEC3"},{"bufferView":3,"byteOffset":0,"componentType":5126,"count":377718,"type":"VEC2"}],"bufferViews":[{"buffer":0,"byteOffset":0,"byteLength":1510872,"target":34963},{"buffer":0,"byteOffset":1510872,"byteLength":4532616,"target":34962},{"buffer":0,"byteOffset":6043488,"byteLength":4532616,"target":34962},{"buffer":0,"byteOffset":10576104,"byteLength":3021744,"target":34962}],"scenes":[{"nodes":[0],"name":"Project Name"}],"buffers":[{"byteLength":13597848,"uri":"ProjectName.bin"}]}